<?xml version="1.0" standalone="no"?>
<!DOCTYPE svg PUBLIC "-//W3C//DTD SVG 1.1//EN" "http://www.w3.org/Graphics/SVG/1.1/DTD/svg11.dtd" >
<svg xmlns="http://www.w3.org/2000/svg">
<metadata>
This is a custom SVG webfont generated by Font Squirrel.
Copyright   : Copyright c 2003 by This Font is designed by Ralph Oliver du Carrois All rights reserved
Foundry     : This Font is designed by Ralph Oliver du Carrois
</metadata>
<defs>
<font id="webfont6AVTa9Or" horiz-adv-x="1159" >
<font-face units-per-em="2048" ascent="1638" descent="-410" />
<missing-glyph horiz-adv-x="579" />
<glyph unicode=" "  horiz-adv-x="579" />
<glyph unicode="&#x09;" horiz-adv-x="579" />
<glyph unicode="&#xa0;" horiz-adv-x="579" />
<glyph unicode="!" horiz-adv-x="579" d="M145 0v252h287v-252h-287zM152 385v940h276v-940h-276z" />
<glyph unicode="&#x22;" horiz-adv-x="579" d="M150 1325h239l-16 -444h-207zM473 1325h236l-17 -444h-203z" />
<glyph unicode="#" d="M37 330v188h223l45 273h-188v188h225l59 346h226l-60 -346h138l59 346h225l-59 -346h194v-188h-231l-45 -273h196v-188h-231l-57 -330h-226l58 330h-135l-60 -330h-225l57 330h-188zM485 518h136l47 273h-136z" />
<glyph unicode="$" d="M72 981q0 158 109.5 250t277.5 117v180h211v-176q190 -16 311 -58l-94 -260q-143 61 -217 76v-326q80 -31 135 -60.5t113.5 -79.5t89 -125t30.5 -175q0 -180 -95 -265t-273 -108v-172h-211v160q-143 2 -377 66l94 260q55 -25 139 -54.5t144 -31.5v362q-72 29 -113 47.5 t-100.5 55t-92 76.5t-57 102.5t-24.5 138.5zM377 981q0 -63 88 -113v232q-88 -29 -88 -119zM664 223q70 33 69 117q0 63 -69 123v-240z" />
<glyph unicode="%" horiz-adv-x="1794" d="M78 1001q0 352 313 353q166 0 241 -86t75 -267q0 -184 -76 -276t-242 -92q-164 0 -237.5 92t-73.5 276zM274 1001q0 -131 21.5 -179t93.5 -48q68 0 93.5 54.5t25.5 172.5q0 121 -24.5 166t-92.5 45q-72 0 -94.5 -49t-22.5 -162zM401 0l742 1288h235l-743 -1288h-234z M1092 340q0 352 313 352q166 0 238.5 -86t72.5 -266q0 -184 -73.5 -276.5t-239.5 -92.5q-164 0 -237.5 92.5t-73.5 276.5zM1288 340q0 -131 21.5 -179t93.5 -48q68 0 93.5 54t25.5 173q0 121 -24.5 166t-92.5 45q-72 0 -94.5 -49t-22.5 -162z" />
<glyph unicode="&#x26;" d="M94 379q0 266 211 377q-18 12 -48 37.5t-56.5 53t-46 73t-19.5 94.5q0 152 99.5 249t300.5 97q190 0 294.5 -89t104.5 -255q0 -172 -381 -336q-100 -43 -136 -113.5t-36 -183.5q0 -207 178 -207q31 0 58.5 11.5t48 28.5t42 40l42.5 47v117h-164v196h442v-329 q0 -51 20.5 -163t20.5 -124h-266l-37 84q-33 -43 -110.5 -81t-129.5 -38q-82 0 -152.5 19.5t-137 62.5t-104.5 128t-38 204zM412 1016q0 -43 31.5 -86t52.5 -60q49 23 77.5 39.5t55 46t26.5 62.5q0 131 -125 131q-61 0 -89.5 -38t-28.5 -95z" />
<glyph unicode="'" horiz-adv-x="579" d="M170 1325h240l-17 -444h-207z" />
<glyph unicode="(" horiz-adv-x="686" d="M111 520q0 266 46 432t160 373h256q-109 -199 -147.5 -371t-38.5 -434q0 -229 39 -398t158 -384h-256q-129 223 -173 386t-44 396z" />
<glyph unicode=")" horiz-adv-x="686" d="M113 -262q119 215 157.5 384t38.5 398q0 262 -39 434t-147 371h254q115 -207 161 -373t46 -432q0 -233 -44 -396t-173 -386h-254z" />
<glyph unicode="*" horiz-adv-x="921" d="M16 948l54 162l313 -115l20 17l-14 321h158l-12 -327l18 -13l309 113l41 -160l-313 -74l-2 -22l205 -270l-131 -93l-179 279h-24l-187 -283l-131 103l209 264l-8 22z" />
<glyph unicode="+" d="M123 356v207h342v326h229v-326h342v-207h-342v-356h-229v356h-342z" />
<glyph unicode="," horiz-adv-x="579" d="M57 -211l88 365h289l-166 -365h-211z" />
<glyph unicode="-" horiz-adv-x="741" d="M53 328v229h635v-229h-635z" />
<glyph unicode="." horiz-adv-x="579" d="M145 0v254h289v-254h-289z" />
<glyph unicode="/" horiz-adv-x="661" d="M-2 -23l436 1369h230l-431 -1369h-235z" />
<glyph unicode="0" d="M78 631q0 330 119.5 486.5t380.5 156.5q274 0 388.5 -155.5t114.5 -487.5q0 -338 -115.5 -503t-390.5 -165q-272 0 -384.5 164t-112.5 504zM389 631q0 -100 3 -158.5t13.5 -119t30 -90.5t54 -49t85.5 -19q115 0 155 105.5t40 330.5q0 231 -36 321t-156 90q-43 0 -76 -12 t-52.5 -40.5t-33 -60.5t-18.5 -85t-7 -97t-2 -116z" />
<glyph unicode="1" d="M236 997l331 246h303v-1245h-311v958l-231 -178z" />
<glyph unicode="2" d="M109 254l147 94q53 35 158.5 112t167 133t111.5 127t50 124q0 201 -174 200q-129 0 -325 -106l-88 252q178 57 243.5 71.5t173.5 14.5q92 0 171 -19.5t152 -63.5t115 -131t42 -210q0 -115 -92.5 -246t-206 -222t-226.5 -155h549v-229h-884z" />
<glyph unicode="3" d="M86 18l90 252q25 -16 134.5 -45.5t199.5 -29.5q98 0 147.5 52t49.5 115q0 49 -18.5 83t-46.5 52.5t-83 28t-104 11.5t-136 2v229h37q78 0 118 2t87 9t66.5 22.5t34 43t14.5 68.5q0 63 -41 97t-117 34q-123 0 -319 -96l-90 252q63 31 198 53.5t223 22.5q457 0 457 -358 q0 -115 -82 -181.5t-203 -81.5q129 -20 222.5 -91.5t93.5 -203.5q0 -115 -47 -196.5t-126 -122.5t-163 -59.5t-178 -18.5q-258 0 -418 55z" />
<glyph unicode="4" d="M14 557l557 686h347v-686h196v-233h-196v-324h-308v324h-495zM268 557h342v416z" />
<glyph unicode="5" d="M90 14l88 252q178 -72 344 -71q74 0 122 18t68.5 54t28 68t7.5 77q0 100 -42 134t-118 34q-66 0 -116 -14.5t-76.5 -33t-61.5 -38.5l-193 71v678h863v-231h-555v-219q49 23 163 22q199 0 321 -100.5t122 -307t-157 -325.5t-378 -119q-274 0 -430 51z" />
<glyph unicode="6" d="M92 580q0 102 18.5 198t62.5 187.5t108.5 160t164 109.5t220.5 41q162 0 315 -41l-88 -252q-115 61 -217 61q-84 0 -145.5 -32.5t-91 -86t-42 -106.5t-12.5 -108q27 49 81 79.5t92 38t65 7.5q442 0 442 -467q0 -182 -141.5 -294t-329.5 -112q-502 1 -502 617zM403 477 q0 -170 50.5 -226t142.5 -56q68 0 113 40.5t45 133.5q0 6 1 25.5t1 33.5q0 176 -158 176q-146 0 -195 -127z" />
<glyph unicode="7" d="M119 1014v227h809l94 -190l-428 -1051h-328l477 1014h-624z" />
<glyph unicode="8" d="M80 324q0 274 297 331q-16 4 -42 15.5l-54.5 23t-56 34t-50 49t-37 65.5t-14.5 86q0 164 115.5 256t349.5 92q252 0 357.5 -84t105.5 -262q0 -68 -30 -121t-75 -84t-85 -48.5t-77 -23.5q150 -33 223.5 -110.5t73.5 -218.5q0 -195 -131 -278t-372 -83q-240 0 -369 82 t-129 279zM383 332q0 -139 195 -139q199 0 198 139q0 86 -49 133t-143 80q-104 -39 -152.5 -81t-48.5 -132zM424 915q0 -35 12.5 -61.5t41 -44.5t46 -26.5t56.5 -22.5q53 20 82.5 34.5t57.5 46t28 74.5q0 31 -3.5 47.5t-17.5 39t-49 34t-90 11.5q-102 0 -133 -34.5 t-31 -97.5z" />
<glyph unicode="9" d="M96 868q0 182 145.5 295t325.5 113q123 0 214 -36t145.5 -93t86 -141t43 -165t11.5 -182q0 -102 -18.5 -198t-62.5 -187.5t-107.5 -160t-163 -109.5t-219.5 -41q-164 0 -318 41l88 252q115 -61 219 -61q84 0 145.5 32.5t90.5 86t41 106.5t12 108q-27 -49 -81 -79.5 t-92 -38t-64 -7.5q-441 0 -441 465zM403 813q0 -178 160 -178q82 0 125 32.5t68 94.5q0 172 -49.5 227t-141.5 55q-68 0 -113.5 -41.5t-45.5 -134.5q0 -4 -1.5 -23.5t-1.5 -31.5z" />
<glyph unicode=":" horiz-adv-x="579" d="M145 0v254h289v-254h-289zM145 672v254h289v-254h-289z" />
<glyph unicode=";" horiz-adv-x="579" d="M57 -211l90 365h287l-166 -365h-211zM147 672v254h289v-254h-289z" />
<glyph unicode="&#x3c;" d="M102 373v286l955 285v-264l-676 -164l676 -160v-264z" />
<glyph unicode="=" d="M102 113v204h955v-204h-955zM102 467v205h955v-205h-955z" />
<glyph unicode="&#x3e;" d="M102 92v264l676 164l-676 160v264l955 -278v-289z" />
<glyph unicode="?" horiz-adv-x="993" d="M104 1284q66 23 189 42.5t199 19.5q61 0 108 -4.5t113.5 -25t109.5 -56t75 -105.5t32 -166q0 -68 -35 -124t-86 -96l-101 -76q-50 -36 -85 -79t-35 -90v-151h-275v162q0 78 33 138t79 98t93 69.5t80 68.5t33 80q0 61 -29 89t-110 28q-61 0 -180 -22.5t-171 -49.5zM307 0 v252h287v-252h-287z" />
<glyph unicode="@" horiz-adv-x="1904" d="M162 655q0 182 67.5 319.5t188.5 218.5t271.5 121t330.5 40q74 0 149.5 -11.5t159.5 -36t155.5 -69.5t131 -105.5t93.5 -151.5t34 -200q0 -152 -59.5 -259t-164 -161.5t-218 -78t-250.5 -23.5q-502 0 -502 404q0 174 105.5 280.5t340.5 106.5q154 0 246 -29v-272l27 -5 l73 -198l-352 -25v307q-16 10 -18 11h-19q-131 0 -131 -179q0 -201 205 -200h29q86 0 131 3t107.5 19.5t93 48t54 94t23.5 154.5q0 360 -444 361q-43 0 -77 -2t-97.5 -11.5t-112.5 -27t-106.5 -53t-96 -86t-64.5 -128t-26 -176.5q0 -481 582 -481h10q158 0 438 62l97 -230 q-266 -47 -541 -47q-186 0 -341 41t-273.5 123t-184 217t-65.5 315z" />
<glyph unicode="A" horiz-adv-x="1443" d="M55 0l539 1325h295l500 -1325h-345l-106 334h-438l-111 -334h-334zM586 569h272l-131 420z" />
<glyph unicode="B" horiz-adv-x="1325" d="M188 0v1325h523q446 0 446 -373q0 -100 -58.5 -166.5t-152.5 -91.5q127 -12 200 -88t73 -213q0 -211 -123 -302t-318 -91h-590zM500 240h266q53 0 94 38.5t41 114.5q0 86 -43 128t-115 42h-243v-323zM500 801h239q47 0 75 40t28 109q0 29 -7.5 55.5t-39 53t-84.5 26.5 h-211v-284z" />
<glyph unicode="C" horiz-adv-x="1210" d="M117 662q0 145 32.5 265t104.5 218t201 153.5t307 55.5q195 0 364 -56l-94 -260q-176 76 -270 76q-170 0 -247 -108.5t-77 -341.5q0 -246 72 -355.5t240 -109.5q74 0 151.5 26.5t145.5 59.5l94 -260q-186 -66 -385 -66q-639 1 -639 703z" />
<glyph unicode="D" horiz-adv-x="1423" d="M188 0v1325h486q322 0 477.5 -151.5t155.5 -505.5q0 -362 -151.5 -515t-481.5 -153h-486zM500 240h192q53 0 90 6t78 31.5t66.5 69.5t42 125t16.5 194q0 88 -11 155.5t-26.5 111.5t-44.5 74.5t-50.5 45t-59 22.5t-59 9t-60.5 1h-174v-845z" />
<glyph unicode="E" horiz-adv-x="1234" d="M188 0v1325h813v-240h-501v-280h458v-240h-458v-325h520v-240h-832z" />
<glyph unicode="F" horiz-adv-x="1103" d="M188 0v1325h813v-242h-501v-286h477v-238h-477v-559h-312z" />
<glyph unicode="G" horiz-adv-x="1337" d="M117 664q0 319 161.5 504.5t493.5 185.5q137 0 348 -56l-94 -260l-60 27q-32 14 -62 24.5t-63.5 17.5t-66.5 7q-76 0 -130 -17.5t-104.5 -62.5t-76 -138t-25.5 -232q0 -246 72 -355.5t250 -109.5q76 0 109.5 6t74.5 31v260h-293v239h570v-655q-106 -66 -209 -93.5 t-258 -27.5q-637 0 -637 705z" />
<glyph unicode="H" horiz-adv-x="1462" d="M188 0v1325h312v-520h463v520h311v-1325h-311v563h-463v-563h-312z" />
<glyph unicode="I" horiz-adv-x="638" d="M164 0v1325h311v-1325h-311z" />
<glyph unicode="J" horiz-adv-x="952" d="M25 0q57 14 115.5 22.5t114.5 34t100 61.5t71 107.5t27 171.5v928h311v-907q0 -96 -21.5 -178t-55.5 -142.5t-89 -112t-106.5 -85t-125 -65.5t-128 -49l-132.5 -40z" />
<glyph unicode="K" horiz-adv-x="1421" d="M188 0v1325h312v-537l442 537h352l-503 -620l604 -705h-402l-493 586v-586h-312z" />
<glyph unicode="L" horiz-adv-x="1034" d="M188 0v1325h312v-1079h524v-246h-836z" />
<glyph unicode="M" horiz-adv-x="1980" d="M188 0v1325h523l286 -911l297 911h502v-1325h-309v993l-334 -993h-334l-332 993v-993h-299z" />
<glyph unicode="N" horiz-adv-x="1542" d="M188 0v1325h467l392 -956v956h307v-1325h-471l-396 956v-956h-299z" />
<glyph unicode="O" horiz-adv-x="1529" d="M117 657q0 152 34.5 274t109.5 219t204 150.5t305 53.5q643 0 643 -697q0 -319 -152.5 -508.5t-492.5 -189.5q-651 0 -651 698zM438 657q0 -264 80 -361t250 -97q168 0 246 108.5t78 349.5q0 252 -81 354.5t-243 102.5q-166 0 -248 -103.5t-82 -353.5z" />
<glyph unicode="P" horiz-adv-x="1273" d="M188 0v1325h506q481 0 482 -407q0 -420 -459 -420h-217v-498h-312zM500 737h200q66 0 113 42t47 139q0 59 -15.5 96t-46 51t-51 17t-57.5 3h-190v-348z" />
<glyph unicode="Q" horiz-adv-x="1529" d="M117 657q0 152 34.5 274t108.5 219t203 150.5t307 53.5q643 0 643 -697q0 -319 -152.5 -508.5t-492.5 -189.5q-651 0 -651 698zM438 657q0 -264 80 -361t250 -97q168 0 246 108.5t78 349.5q0 252 -81 354.5t-243 102.5q-166 0 -248 -103.5t-82 -353.5zM668 -262l104 170 l477 -45l-104 -197z" />
<glyph unicode="R" horiz-adv-x="1372" d="M188 0v1325h537q461 0 461 -397q0 -141 -72 -247t-231 -140l403 -541h-383l-385 530h-18v-530h-312zM500 770h237q61 0 97 44t36 114q0 158 -135 157h-235v-315z" />
<glyph unicode="S" horiz-adv-x="1261" d="M127 25l94 260q229 -86 326 -86q141 0 206.5 27.5t65.5 113.5q0 59 -51 103t-128 71t-167 65.5t-167 82t-128 126t-51 193.5q0 127 84 214t199.5 123t246.5 36q197 0 371 -60l-94 -260q-43 25 -120 52.5t-159 27.5q-68 0 -114.5 -14.5t-65 -38t-26 -42t-7.5 -38.5 q0 -49 51.5 -86t128 -59.5t167 -60.5t167 -85t128 -136t51.5 -210q0 -119 -47.5 -198.5t-135.5 -118.5t-183 -53.5t-224 -14.5q-178 0 -418 66z" />
<glyph unicode="T" horiz-adv-x="1095" d="M41 1083v242h1014v-242h-350v-1083h-314v1083h-350z" />
<glyph unicode="U" horiz-adv-x="1525" d="M188 489v836h312v-815q0 -98 23.5 -163.5t67.5 -96.5t87 -41t98 -10q109 0 179.5 73.5t70.5 237.5v815h311v-840q0 -260 -146.5 -393t-414.5 -133q-588 0 -588 530z" />
<glyph unicode="V" horiz-adv-x="1384" d="M55 1325h344l308 -950l288 950h334l-485 -1325h-289z" />
<glyph unicode="W" horiz-adv-x="2070" d="M68 1325h329l191 -954l280 899h394l215 -897l219 952h307l-334 -1325h-391l-240 862l-295 -862h-391z" />
<glyph unicode="X" horiz-adv-x="1349" d="M59 0l443 684l-389 641h358l213 -369l229 369h334l-403 -633l434 -692h-367l-243 434l-275 -434h-334z" />
<glyph unicode="Y" horiz-adv-x="1327" d="M27 1325h354l289 -463l291 463h339l-487 -729v-596h-311v588z" />
<glyph unicode="Z" horiz-adv-x="1171" d="M86 250l664 833h-588v242h846l77 -250l-659 -833h643v-242h-905z" />
<glyph unicode="[" horiz-adv-x="657" d="M170 -260v1644h391v-194h-162v-1249h162v-201h-391z" />
<glyph unicode="\" horiz-adv-x="661" d="M-2 1346h229l437 -1369h-236z" />
<glyph unicode="]" horiz-adv-x="657" d="M125 -59h162v1247h-162v194h391v-1644h-391v203z" />
<glyph unicode="^" d="M61 551l371 774h285l379 -774h-252l-266 592l-271 -592h-246z" />
<glyph unicode="_" horiz-adv-x="1024" d="M-2 -39h1028v-213h-1028v213z" />
<glyph unicode="`" horiz-adv-x="544" d="M39 1325h270l197 -240h-184z" />
<glyph unicode="a" horiz-adv-x="1112" d="M84 246q0 352 520 352h72v31q0 33 -3 53t-29 44t-75 24q-182 0 -354 -82l-96 229q201 68 469 68q168 0 269 -76t101 -223v-379q0 -43 18.5 -148.5t22.5 -138.5h-268q-2 0 -20 47l-17 39q-18 -16 -45.5 -35.5t-55.5 -37t-63.5 -30t-68.5 -12.5q-377 1 -377 275zM375 258 q0 -72 143 -72q68 0 160 103v108h-45q-258 0 -258 -139z" />
<glyph unicode="b" horiz-adv-x="1128" d="M104 0q27 201 27 287v1059h281v-525q109 143 239 144q199 0 296 -139.5t97 -352.5t-114.5 -357.5t-317.5 -144.5q-78 0 -132 37t-74 78l-41 -86h-261zM408 332q59 -145 155 -146q195 0 195 283q0 164 -45 222.5t-123 58.5q-35 0 -70 -31t-53 -61l-59 -99v-227z" />
<glyph unicode="c" horiz-adv-x="976" d="M84 461q0 233 127 368.5t367 135.5q59 0 163.5 -22.5t159.5 -45.5l-96 -229q-164 82 -230 82q-106 0 -155 -59.5t-49 -229.5q0 -274 202 -275q82 0 242 82l96 -229q-51 -25 -165.5 -46.5t-174.5 -21.5q-231 0 -359 134.5t-128 355.5z" />
<glyph unicode="d" horiz-adv-x="1128" d="M84 473q0 211 98.5 351.5t290.5 140.5q135 0 244 -144v525h280v-1059q0 -86 27 -287h-260l-41 86q-20 -41 -74.5 -78t-132.5 -37q-117 0 -203 40t-135 112t-71.5 159t-22.5 191zM371 469q0 -172 47 -227.5t147 -55.5q96 0 156 146v227l-35 58q-16 28 -33.5 51.5t-35 42 t-38 29t-42.5 10.5q-78 0 -122 -57.5t-44 -223.5z" />
<glyph unicode="e" horiz-adv-x="1107" d="M84 459q0 70 13.5 136.5t46 135t84 119.5t134 83t187.5 32q262 0 366.5 -143.5t104.5 -473.5h-643q33 -170 203 -170q129 0 288 80l93 -213q-166 -74 -398 -74q-225 0 -352 140.5t-127 347.5zM379 555h360q-18 195 -188 195q-23 0 -44.5 -5.5t-53 -22.5t-52 -60.5 t-22.5 -106.5z" />
<glyph unicode="f" horiz-adv-x="684" d="M18 721v215h142v22q0 182 112.5 271.5t337.5 132.5l99 -227q-139 -16 -204 -57.5t-65 -129.5v-12h172v-215h-172v-721h-280v721h-142z" />
<glyph unicode="g" horiz-adv-x="1165" d="M78 -147q0 51 26.5 90t47 51t55.5 29q-111 51 -111 182q0 92 117 170q-88 113 -88 231q0 39 8 80t37 93t75 91t131 67t197 28q43 0 158 -17q270 23 383 27l-67 -182h-107q86 -102 86 -191q0 -63 -20.5 -121.5t-66.5 -115t-139 -90t-222 -33.5q-133 0 -209 30 q-37 -4 -37 -55q0 -37 52 -51t226 -27q287 -20 384.5 -81.5t97.5 -198.5q0 -76 -44 -132.5t-119 -86t-159 -44t-180 -14.5q-279 0 -395.5 71t-116.5 200zM362 -137q0 -37 75 -59.5t153 -22.5q131 0 174 15.5t43 62.5q0 74 -418 75q-27 -30 -27 -71zM406 602q0 -150 174 -149 q86 0 125.5 49t39.5 108q0 145 -167 146q-31 0 -53.5 -3t-53.5 -16.5t-48 -47.5t-17 -87z" />
<glyph unicode="h" horiz-adv-x="1116" d="M131 0v1346h281v-525q2 2 20.5 24.5t36.5 39t45 37t61.5 33t71.5 12.5q201 0 273.5 -97.5t72.5 -285.5v-584h-280v623q0 29 -3 46t-12.5 39.5t-35 34t-64.5 11.5q-37 0 -74 -31t-57.5 -62.5t-54.5 -93.5v-567h-281z" />
<glyph unicode="i" horiz-adv-x="544" d="M127 1104v221h291v-221h-291zM133 0v936h279v-936h-279z" />
<glyph unicode="j" horiz-adv-x="540" d="M-66 -211q106 23 148.5 68t42.5 137v942h281v-924q0 -96 -30 -172t-86.5 -128t-116.5 -86t-140 -64zM117 1104v221h297v-221h-297z" />
<glyph unicode="k" horiz-adv-x="1044" d="M131 0v1346h281v-771l262 361h301l-299 -406l348 -530h-319l-293 459v-459h-281z" />
<glyph unicode="l" horiz-adv-x="542" d="M131 0v1346h281v-1346h-281z" />
<glyph unicode="m" horiz-adv-x="1699" d="M104 936h261l38 -117q31 45 103 96.5t141 51.5q121 0 176.5 -24.5t126.5 -108.5q82 133 287 133q168 0 250 -90.5t82 -278.5v-598h-281v594q0 96 -24.5 128t-71.5 32q-135 0 -207 -197v-557h-280v594q0 104 -23 132t-90 28q-25 0 -50.5 -14.5t-44 -37t-37 -48t-29.5 -48 l-19 -37.5v-569h-281v721q0 45 -12.5 118.5t-14.5 96.5z" />
<glyph unicode="n" horiz-adv-x="1124" d="M104 936h261l41 -115l27 29q24 25 41.5 40t46 35.5t61 31t67.5 10.5q199 0 271.5 -97.5t72.5 -279.5v-590h-280v608q0 33 -2 51.5t-12.5 44t-35 38t-65.5 12.5q-55 0 -98 -49.5t-88 -137.5v-567h-281v737q0 39 -27 199z" />
<glyph unicode="o" horiz-adv-x="1140" d="M84 473q0 213 121 353.5t366 140.5q250 0 368 -136.5t118 -357.5q0 -219 -120 -361.5t-366 -142.5q-248 0 -367.5 141.5t-119.5 362.5zM371 473q0 -291 200 -291q199 0 199 291q0 164 -47 222.5t-152 58.5q-100 0 -150 -59.5t-50 -221.5z" />
<glyph unicode="p" horiz-adv-x="1128" d="M104 936h261l45 -115q31 41 51 63.5t70.5 52.5t103.5 30q209 0 309 -141.5t100 -362.5q0 -211 -100 -352.5t-293 -141.5q-59 0 -129.5 31t-109.5 84v-453h-281v1014q0 78 -27 291zM406 336q37 -74 88 -114t98 -40q76 0 121 59.5t45 225.5q0 174 -48 230.5t-149 56.5 q-23 0 -43 -13.5t-43.5 -50.5l-32.5 -52l-36 -69v-233z" />
<glyph unicode="q" horiz-adv-x="1128" d="M84 463q0 217 104.5 360.5t305.5 143.5q53 0 103 -30t70.5 -52.5t51.5 -63.5l45 115h260q-27 -213 -27 -291v-1014h-280v453q-39 -53 -110.5 -84t-131.5 -31q-143 0 -233 72t-124 177.5t-34 244.5zM371 467q0 -166 45 -225.5t121 -59.5q47 0 97 40t87 114v233l-34 66 q-17 33 -34.5 59.5t-39 43t-44.5 16.5q-104 0 -151 -55.5t-47 -231.5z" />
<glyph unicode="r" horiz-adv-x="823" d="M104 936h261l41 -129q94 160 204 160q100 0 183 -25l-95 -227q-45 39 -116 39q-29 0 -55.5 -15.5t-43 -39t-32 -51t-23.5 -52.5t-16 -41v-555h-281v727q0 41 -5 81t-12.5 78t-9.5 50z" />
<glyph unicode="s" horiz-adv-x="960" d="M74 37l96 229q27 -8 87 -34.5t104.5 -38t91.5 -11.5q63 0 96 12.5t39 24.5t6 31v6q0 27 -51 44t-124 36.5t-145.5 52.5t-124 107.5t-51.5 185.5q0 285 418 285q145 0 336 -58l-94 -227l-89 40q-26 11 -68 21.5t-83 10.5q-133 0 -133 -66q0 -37 51 -60.5t124 -45 t145.5 -53t124 -100.5t51.5 -171q0 -289 -432 -289q-164 0 -375 68z" />
<glyph unicode="t" horiz-adv-x="651" d="M23 721v217h141v256h278v-256h181v-217h-181v-514q0 -88 42 -130t153 -75l-105 -227q-170 66 -269 170t-99 291v485h-141z" />
<glyph unicode="u" horiz-adv-x="1110" d="M131 346v590h281v-608q0 -43 4 -69t29.5 -51.5t74.5 -25.5q31 0 55.5 13.5t49 48.5t35.5 55l38 70v567h281v-737q0 -39 27 -199h-261l-40 115q-2 -2 -35 -37t-53.5 -52.5t-62.5 -37t-85 -19.5q-188 0 -263 98.5t-75 278.5z" />
<glyph unicode="v" horiz-adv-x="1148" d="M70 936h299l213 -614l202 614h295l-364 -936h-283z" />
<glyph unicode="w" horiz-adv-x="1720" d="M53 936h297l195 -596l200 518h279l193 -520l159 598h291l-305 -936h-297l-186 530l-211 -530h-297z" />
<glyph unicode="x" horiz-adv-x="1056" d="M45 0l338 473l-315 463h309l160 -260l168 260h290l-321 -449l338 -487h-310l-176 276l-188 -276h-293z" />
<glyph unicode="y" horiz-adv-x="1130" d="M70 936h299l192 -582l205 582h295l-412 -1086q-111 -295 -391 -389l-96 228q145 39 180 133l82 217z" />
<glyph unicode="z" horiz-adv-x="944" d="M43 229l539 492h-465v215h690l94 -229l-530 -492h493v-215h-725z" />
<glyph unicode="{" horiz-adv-x="831" d="M98 438v211q63 2 97 39t45.5 95.5t17.5 129t24.5 141t55.5 130t119 98.5t205 43v-211q-70 0 -103 -47t-41 -120l-17 -149q-9 -77 -48 -150t-117 -107q78 -29 118 -98.5t48 -148.5l15 -153q7 -74 41 -123t104 -49v-211q-123 4 -204 42t-117 96.5t-53.5 129t-24.5 141.5 t-18.5 130t-47.5 98t-99 43z" />
<glyph unicode="|" horiz-adv-x="579" d="M172 -340v1778h236v-1778h-236z" />
<glyph unicode="}" horiz-adv-x="831" d="M172 -31q70 0 102.5 49.5t39.5 122.5l16 153q8 79 48 148.5t118 98.5q-78 35 -117 107.5t-47 149.5l-17 149q-8 73 -40.5 120t-102.5 47v211q123 -4 205 -43t118.5 -98.5t54 -130t24 -141t17.5 -129t45 -95.5t97 -39v-211q-74 -6 -110.5 -57t-42 -125t-21.5 -160 t-44 -159.5t-115 -124t-228 -54.5v211z" />
<glyph unicode="~" d="M63 440q0 113 78 195t221 82q76 0 150 -30t117 -65l76 -66q33 -30 38 -30q76 0 107 29t31 127l217 -117q0 -113 -77 -194.5t-226 -81.5q-66 0 -134.5 30.5t-111.5 66.5l-81 67q-38 31 -52 30q-74 0 -105.5 -31.5t-31.5 -129.5z" />
<glyph unicode="&#xa1;" horiz-adv-x="579" d="M145 1073v252h287v-252h-287zM152 0v940h276v-940h-276z" />
<glyph unicode="&#xa2;" horiz-adv-x="976" d="M84 461q0 201 95 331t278 162v195h221v-195q147 -27 223 -57l-96 -229q-104 53 -127 61v-524q57 23 137 63l96 -229q-66 -33 -233 -57v-187h-221v187q-180 33 -276.5 161t-96.5 318zM371 461q0 -168 86 -250v518q-86 -61 -86 -268z" />
<glyph unicode="&#xa3;" d="M86 580v211h158l2 47q0 240 167 381t490 161l80 -254q-92 0 -146.5 -4t-116 -22.5t-94 -53t-54 -99t-21.5 -156.5h291v-211h-287v-334h561v-246h-999v246h127v334h-158z" />
<glyph unicode="&#xa5;" d="M-6 1325h346l246 -475l252 475h327l-379 -635h181v-209h-238v-84h238v-207h-238v-190h-311v190h-240v207h240v84h-240v209h180z" />
<glyph unicode="&#xa6;" horiz-adv-x="579" d="M174 -160v479h232v-479h-232zM174 735v479h232v-479h-232z" />
<glyph unicode="&#xa7;" horiz-adv-x="917" d="M47 684q0 145 103 209q-70 74 -70 176q0 285 422 285q127 0 317 -58l-96 -225q-41 23 -101.5 46.5t-117.5 23.5q-139 0 -139 -66q0 -37 52 -60.5t126.5 -45t148.5 -54t126 -102.5t52 -172q0 -131 -82 -207q39 -74 39 -178q0 -289 -426 -289q-135 0 -342 68l97 227 q43 -25 112.5 -53.5t137.5 -28.5q59 0 91.5 11.5t39 22.5t6.5 28v12q0 29 -37 48.5t-92.5 31.5t-119 35.5t-118.5 56.5t-92 99.5t-37 158.5zM326 684q0 -27 37.5 -50.5t93 -39.5t116.5 -37q18 18 19 53v29q0 74 -217 137q-49 -24 -49 -92z" />
<glyph unicode="&#xa8;" horiz-adv-x="544" d="M-16 1114v211h245v-211h-245zM317 1114v211h246v-211h-246z" />
<glyph unicode="&#xa9;" horiz-adv-x="1474" d="M51 663.5q0 288.5 199 486.5t487 198q293 0 489.5 -197t196.5 -487q0 -289 -198.5 -486.5t-487 -197.5t-487.5 197.5t-199 486zM213 664q0 -219 152.5 -377t371.5 -158t372 157.5t153 377.5q0 221 -152 377.5t-373 156.5q-223 0 -373.5 -155.5t-150.5 -378.5zM373 659 q0 416 377 416q127 0 215 -31l-58 -153q-102 45 -157 45q-98 0 -143.5 -65.5t-45.5 -208.5q0 -150 43 -217.5t141 -67.5q31 0 61 7t54 18l58 26l55 -154q-100 -37 -225 -36q-375 -1 -375 421z" />
<glyph unicode="&#xaa;" d="M303 936q0 197 311 197h41v22q0 16 -2 25.5t-17 18.5t-44 9q-104 0 -211 -47l-57 133q117 39 280 39q102 0 168 -42t66 -122v-211q0 -25 11 -86t13 -71h-174l-8 20q-10 29 -12 29q-86 -63 -140 -64q-225 0 -225 150zM479 944q0 -33 60 -33h22q51 0 98 47v58h-28 q-84 0 -118 -16.5t-34 -55.5z" />
<glyph unicode="&#xab;" horiz-adv-x="886" d="M37 553l190 373h254l-198 -369l196 -369h-252zM408 553l190 373h252l-199 -369l197 -369h-250z" />
<glyph unicode="&#xac;" d="M72 512v207h1005v-559h-229v352h-776z" />
<glyph unicode="&#xad;" horiz-adv-x="741" d="M53 328v229h635v-229h-635z" />
<glyph unicode="&#xae;" horiz-adv-x="1474" d="M51 663.5q0 288.5 199 486.5t487 198q293 0 489.5 -197t196.5 -487q0 -289 -198.5 -486.5t-487 -197.5t-487.5 197.5t-199 486zM213 664q0 -219 152.5 -377t371.5 -158t372 157.5t153 377.5q0 221 -152 377.5t-373 156.5q-223 0 -373.5 -155.5t-150.5 -378.5zM434 264 v799h316q272 0 272 -242q0 -190 -176 -231l233 -326h-223l-225 322h-13v-322h-184zM618 725h140q35 0 56.5 26.5t21.5 69.5t-20.5 71t-59.5 28h-138v-195z" />
<glyph unicode="&#xaf;" horiz-adv-x="544" d="M-6 1092v194h557v-194h-557z" />
<glyph unicode="&#xb0;" horiz-adv-x="921" d="M88 897q0 156 109.5 261.5t263 105.5t262 -105.5t108.5 -261.5t-108.5 -258t-263.5 -102q-154 0 -262.5 102t-108.5 258zM258 897q0 -82 60.5 -142.5t140.5 -60.5t141.5 60.5t61.5 142.5q0 90 -56.5 148.5t-144.5 58.5t-145.5 -58.5t-57.5 -148.5z" />
<glyph unicode="&#xb1;" d="M102 -2v207h955v-207h-955zM123 479v207h342v203h229v-203h342v-207h-342v-233h-229v233h-342z" />
<glyph unicode="&#xb2;" horiz-adv-x="780" d="M92 803q68 41 156 89t162.5 112.5t74.5 111.5q0 43 -19.5 65.5t-39.5 26.5t-53 4q-76 0 -197 -57l-53 150q106 33 147 41t105 8q57 0 107 -10.5t98.5 -34t77 -71.5t28.5 -116q0 -47 -36 -98t-95 -95t-110.5 -76t-106.5 -60h348v-142h-545z" />
<glyph unicode="&#xb3;" horiz-adv-x="780" d="M100 664l52 149q16 -10 82.5 -25.5t119.5 -15.5q59 0 93 25.5t34 54.5q0 59 -57 76.5t-184 17.5v133q63 0 97 2t66.5 9.5t46 22.5t13.5 42q0 57 -103 57q-80 0 -194 -51l-51 152q37 16 117.5 28.5t134.5 12.5q139 0 215.5 -50.5t76.5 -146.5q0 -63 -49 -99t-123 -44 q76 -10 133.5 -51t57.5 -113q0 -63 -31 -108.5t-83 -67t-104 -31.5t-110 -10q-152 0 -250 31z" />
<glyph unicode="&#xb4;" horiz-adv-x="544" d="M39 1085l197 240h270l-281 -240h-186z" />
<glyph unicode="&#xb5;" d="M156 -369v1305h280v-608q0 -43 4 -69t30 -51.5t75 -25.5q31 0 55.5 13.5t49 48.5t35.5 55l38 70v567h281v-737q0 -39 26 -199h-260l-41 115q-2 -2 -34.5 -37t-53 -52.5t-62.5 -37t-85 -19.5h-58v-338h-280z" />
<glyph unicode="&#x3bc;" d="M156 -369v1305h280v-608q0 -43 4 -69t30 -51.5t75 -25.5q31 0 55.5 13.5t49 48.5t35.5 55l38 70v567h281v-737q0 -39 26 -199h-260l-41 115q-2 -2 -34.5 -37t-53 -52.5t-62.5 -37t-85 -19.5h-58v-338h-280z" />
<glyph unicode="&#xb6;" horiz-adv-x="1105" d="M41 903q0 49 7 98.5t32.5 111t66.5 106.5t117 75.5t174 30.5h652v-1710h-230v1499h-205q-98 0 -160.5 -66.5t-62.5 -183.5q0 -90 63.5 -164.5t137.5 -95.5v-989h-232v860q-123 25 -207.5 96.5t-118.5 155.5t-34 176z" />
<glyph unicode="&#xb7;" horiz-adv-x="579" d="M164 418v252h252v-252h-252z" />
<glyph unicode="&#xb8;" horiz-adv-x="544" d="M-4 -457l57 187q131 -16 160 -17q98 0 98 80q0 45 -29.5 60.5t-134.5 15.5l43 162h216l-21 -78q68 0 104.5 -50t36.5 -106q0 -129 -95 -199.5t-208 -70.5q-108 0 -227 16z" />
<glyph unicode="&#xb9;" horiz-adv-x="780" d="M158 1190l198 135h181v-684h-199v516l-123 -98z" />
<glyph unicode="&#xba;" d="M281 1081q0 117 76.5 195t224.5 78q152 0 227.5 -76t75.5 -197q0 -119 -78 -198.5t-225 -79.5q-150 0 -225.5 79.5t-75.5 198.5zM459 1081q0 -152 123 -151.5t123 151.5q0 86 -32 117t-91 31q-57 0 -90 -31t-33 -117z" />
<glyph unicode="&#xbb;" horiz-adv-x="886" d="M39 926h254l190 -373l-190 -365h-252l197 369zM410 926h252l190 -373l-190 -365h-250l196 369z" />
<glyph unicode="&#xbc;" horiz-adv-x="1794" d="M131 1190l197 135h180v-684h-197v516l-125 -98zM319 0l740 1288h237l-741 -1288h-236zM924 313l336 371h217v-371h112v-141h-112v-172h-195v172h-299zM1087 313h195v207z" />
<glyph unicode="&#xbd;" horiz-adv-x="1794" d="M119 1190l198 135h181v-684h-199v516l-123 -98zM305 0l742 1288h235l-743 -1288h-234zM1059 147q68 41 156 89.5t162.5 114t74.5 112.5q0 61 -30.5 79.5t-82.5 18.5q-78 0 -198 -57l-54 149q106 33 147.5 41t106.5 8q125 0 218.5 -53t93.5 -180q0 -152 -350 -330h350 v-139h-545z" />
<glyph unicode="&#xbe;" horiz-adv-x="1794" d="M102 664l54 149q16 -10 81.5 -25.5t118.5 -15.5q59 0 93 25.5t34 54.5q0 59 -57 76.5t-182 17.5v133q63 0 97 2t66.5 9.5t45 22.5t12.5 42q0 57 -100 57q-80 0 -195 -51l-53 152q37 16 117.5 28.5t134.5 12.5q139 0 217 -50.5t78 -146.5q0 -63 -50.5 -99t-124.5 -44 q78 -10 135.5 -51t57.5 -113q0 -82 -56.5 -133t-125 -67.5t-148.5 -16.5q-152 0 -250 31zM391 0l742 1288h235l-743 -1288h-234zM958 313l336 371h217v-371h113v-141h-113v-172h-194v172h-299zM1122 313h195v207z" />
<glyph unicode="&#xbf;" horiz-adv-x="993" d="M104 336q0 68 35 124t85 96t101.5 76t86 79t34.5 90v151h273v-161q0 -78 -33 -138.5t-79 -98.5t-92 -69.5t-79 -68.5t-33 -80q0 -61 29 -89t111 -28q61 0 180 22.5t170 49.5l37 -250q-66 -23 -189 -42t-198 -19q-61 0 -108.5 4t-114 24.5t-109.5 56t-75 105.5t-32 166z M440 1073v252h287v-252h-287z" />
<glyph unicode="&#xc0;" horiz-adv-x="1443" d="M55 0l539 1325h295l500 -1325h-345l-106 334h-438l-111 -334h-334zM485 1663h271l196 -240h-184zM586 569h272l-131 420z" />
<glyph unicode="&#xc1;" horiz-adv-x="1443" d="M55 0l539 1325h295l500 -1325h-345l-106 334h-438l-111 -334h-334zM514 1425l197 240h270l-281 -240h-186zM586 569h272l-131 420z" />
<glyph unicode="&#xc2;" horiz-adv-x="1443" d="M55 0l539 1325h295l500 -1325h-345l-106 334h-438l-111 -334h-334zM436 1417l213 246h180l205 -246h-194l-101 123l-106 -123h-197zM586 569h272l-131 420z" />
<glyph unicode="&#xc3;" horiz-adv-x="1443" d="M55 0l539 1325h295l500 -1325h-345l-106 334h-438l-111 -334h-334zM389 1454q41 92 98.5 128t153.5 36q51 0 113.5 -50t93.5 -50q41 0 70.5 31.5t39.5 64.5l140 -68q-27 -84 -95.5 -132t-150.5 -48q-70 0 -129 49t-84 49q-82 0 -109 -75zM586 569h272l-131 420z" />
<glyph unicode="&#xc4;" horiz-adv-x="1443" d="M55 0l539 1325h295l500 -1325h-345l-106 334h-438l-111 -334h-334zM442 1370v211h246v-211h-246zM586 569h272l-131 420zM776 1370v211h246v-211h-246z" />
<glyph unicode="&#xc5;" horiz-adv-x="1443" d="M55 0l539 1325h295l500 -1325h-345l-106 334h-438l-111 -334h-334zM586 569h272l-131 420zM588 1542.5q0 69.5 49 118.5t120.5 49t121 -48t49.5 -120q0 -70 -49.5 -119t-120.5 -49q-70 0 -120 49.5t-50 119zM678 1544q0 -29 23.5 -54.5t56.5 -25.5q37 0 57.5 23.5 t20.5 56.5t-21.5 56.5t-56.5 23.5t-57.5 -24.5t-22.5 -55.5z" />
<glyph unicode="&#xc6;" horiz-adv-x="2113" d="M55 0l752 1325h1073v-240h-678l39 -280h596v-240h-555l55 -325h561v-240h-825l-45 334h-438l-176 -334h-359zM717 569h276l-53 426z" />
<glyph unicode="&#xc7;" horiz-adv-x="1210" d="M117 662q0 145 32.5 265t104.5 219t201 154.5t307 55.5q188 0 364 -58l-94 -260q-47 18 -87 37t-89 31t-94 12q-170 0 -247 -110.5t-77 -343.5q0 -248 72 -358.5t240 -110.5q74 0 151.5 28.5t145.5 61.5l94 -260q-193 -68 -385 -68v-4q70 0 109.5 -51.5t39.5 -104.5 q0 -127 -100 -198.5t-213 -71.5q-109 0 -227 16l57 191q147 -18 160 -19q98 0 98 78q0 45 -29.5 60.5t-134.5 15.5l29 108q-428 112 -428 685z" />
<glyph unicode="&#xc8;" horiz-adv-x="1234" d="M188 0v1325h813v-240h-501v-280h458v-240h-458v-325h520v-240h-832zM338 1663h270l197 -240h-184z" />
<glyph unicode="&#xc9;" horiz-adv-x="1234" d="M188 0v1325h813v-240h-501v-280h458v-240h-458v-325h520v-240h-832zM287 1386l196 240h271l-281 -240h-186z" />
<glyph unicode="&#xca;" horiz-adv-x="1234" d="M188 0v1325h813v-240h-501v-280h458v-240h-458v-325h520v-240h-832zM287 1419l213 246h180l205 -246h-195l-100 123l-107 -123h-196z" />
<glyph unicode="&#xcb;" horiz-adv-x="1234" d="M188 0v1325h813v-240h-501v-280h458v-240h-458v-325h520v-240h-832zM334 1370v211h246v-211h-246zM668 1370v211h245v-211h-245z" />
<glyph unicode="&#xcc;" horiz-adv-x="638" d="M100 1657h271l196 -240h-184zM164 0v1325h311v-1325h-311z" />
<glyph unicode="&#xcd;" horiz-adv-x="638" d="M98 1417l197 240h270l-280 -240h-187zM162 0v1325h311v-1325h-311z" />
<glyph unicode="&#xce;" horiz-adv-x="638" d="M20 1401l213 246h181l204 -246h-194l-100 123l-107 -123h-197zM164 0v1325h311v-1325h-311z" />
<glyph unicode="&#xcf;" horiz-adv-x="638" d="M31 1479v211h245v-211h-245zM156 0v1325h311v-1325h-311zM365 1479v211h245v-211h-245z" />
<glyph unicode="&#xd0;" horiz-adv-x="1423" d="M59 633v213h129v479h486q322 0 477.5 -151.5t155.5 -505.5q0 -362 -151.5 -515t-481.5 -153h-486v633h-129zM500 240h192q53 0 90 6t78 31.5t66.5 69.5t42 125t16.5 194q0 88 -11 155.5t-26.5 111.5t-44.5 74.5t-50.5 45t-59 22.5t-59 9t-60.5 1h-174v-239h157v-213h-157 v-393z" />
<glyph unicode="&#xd1;" horiz-adv-x="1542" d="M188 0v1325h467l392 -956v956h307v-1325h-471l-396 956v-956h-299zM428 1456q41 92 98.5 128t153.5 36q51 0 113.5 -50t93.5 -50q41 0 70.5 31.5t39.5 64.5l140 -68q-27 -84 -95.5 -132t-150.5 -48q-70 0 -129.5 49t-83.5 49q-82 0 -109 -75z" />
<glyph unicode="&#xd2;" horiz-adv-x="1529" d="M117 657q0 152 34.5 274t109.5 219t204 150.5t305 53.5q643 0 643 -697q0 -319 -152.5 -508.5t-492.5 -189.5q-651 0 -651 698zM436 1663h271l196 -240h-184zM438 657q0 -264 80 -361t250 -97q168 0 246 108.5t78 349.5q0 252 -81 354.5t-243 102.5q-166 0 -248 -103.5 t-82 -353.5z" />
<glyph unicode="&#xd3;" horiz-adv-x="1529" d="M117 657q0 152 34.5 274t109.5 219t204 150.5t305 53.5q643 0 643 -697q0 -319 -152.5 -508.5t-492.5 -189.5q-651 0 -651 698zM438 657q0 -264 80 -361t250 -97q168 0 246 108.5t78 349.5q0 252 -81 354.5t-243 102.5q-166 0 -248 -103.5t-82 -353.5zM524 1425l197 240 h270l-280 -240h-187z" />
<glyph unicode="&#xd4;" horiz-adv-x="1529" d="M117 657q0 152 34.5 274t109.5 219t204 150.5t305 53.5q643 0 643 -697q0 -319 -152.5 -508.5t-492.5 -189.5q-651 0 -651 698zM438 657q0 -264 80 -361t250 -97q168 0 246 108.5t78 349.5q0 252 -81 354.5t-243 102.5q-166 0 -248 -103.5t-82 -353.5zM459 1419l213 246 h180l205 -246h-195l-100 123l-107 -123h-196z" />
<glyph unicode="&#xd5;" horiz-adv-x="1529" d="M117 657q0 152 34.5 274t109.5 219t204 150.5t305 53.5q643 0 643 -697q0 -319 -152.5 -508.5t-492.5 -189.5q-651 0 -651 698zM430 1456q41 92 98.5 128t153.5 36q51 0 113.5 -50t93.5 -50q41 0 70.5 31.5t39.5 64.5l140 -68q-27 -84 -95.5 -132t-150.5 -48 q-70 0 -129 49t-84 49q-82 0 -109 -75zM438 657q0 -264 80 -361t250 -97q168 0 246 108.5t78 349.5q0 252 -81 354.5t-243 102.5q-166 0 -248 -103.5t-82 -353.5z" />
<glyph unicode="&#xd6;" horiz-adv-x="1529" d="M117 657q0 152 34.5 274t109.5 219t204 150.5t305 53.5q643 0 643 -697q0 -319 -152.5 -508.5t-492.5 -189.5q-651 0 -651 698zM438 657q0 -264 80 -361t250 -97q168 0 246 108.5t78 349.5q0 252 -81 354.5t-243 102.5q-166 0 -248 -103.5t-82 -353.5zM479 1370v211h246 v-211h-246zM813 1370v211h246v-211h-246z" />
<glyph unicode="&#xd7;" d="M88 213l330 330l-330 329l164 164l330 -329l329 329l164 -164l-330 -329l330 -330l-164 -164l-329 330l-330 -330z" />
<glyph unicode="&#xd8;" horiz-adv-x="1529" d="M33 -2l184 217q-100 166 -100 442q0 152 34.5 274t109.5 219t204 150.5t305 53.5q213 0 360 -74l148 172l201 -184l-156 -185q90 -162 90 -426q0 -319 -152.5 -508.5t-492.5 -189.5q-209 0 -354 64l-178 -209zM438 657q0 -100 6 -174l506 588q-72 43 -182 43 q-166 0 -248 -103.5t-82 -353.5zM586 225q61 -27 182 -26q168 0 246 108.5t78 349.5q0 31 -1 82.5t-1 71.5z" />
<glyph unicode="&#xd9;" horiz-adv-x="1525" d="M188 489v836h312v-815q0 -98 23.5 -163.5t67.5 -96.5t87 -41t98 -10q109 0 179.5 73.5t70.5 237.5v815h311v-840q0 -260 -146.5 -393t-414.5 -133q-588 0 -588 530zM430 1663h270l197 -240h-184z" />
<glyph unicode="&#xda;" horiz-adv-x="1525" d="M188 489v836h312v-815q0 -98 23.5 -163.5t67.5 -96.5t87 -41t98 -10q109 0 179.5 73.5t70.5 237.5v815h311v-840q0 -260 -146.5 -393t-414.5 -133q-588 0 -588 530zM590 1384l196 240h271l-281 -240h-186z" />
<glyph unicode="&#xdb;" horiz-adv-x="1525" d="M188 489v836h312v-815q0 -98 23.5 -163.5t67.5 -96.5t87 -41t98 -10q109 0 179.5 73.5t70.5 237.5v815h311v-840q0 -260 -146.5 -393t-414.5 -133q-588 0 -588 530zM469 1419l213 246h180l205 -246h-195l-100 123l-106 -123h-197z" />
<glyph unicode="&#xdc;" horiz-adv-x="1525" d="M188 489v836h312v-815q0 -98 23.5 -163.5t67.5 -96.5t87 -41t98 -10q109 0 179.5 73.5t70.5 237.5v815h311v-840q0 -260 -146.5 -393t-414.5 -133q-588 0 -588 530zM485 1370v211h246v-211h-246zM819 1370v211h246v-211h-246z" />
<glyph unicode="&#xdd;" horiz-adv-x="1327" d="M27 1325h354l289 -463l291 463h339l-487 -729v-596h-311v588zM319 1417l197 240h270l-280 -240h-187z" />
<glyph unicode="&#xde;" horiz-adv-x="1273" d="M188 0v1325h312v-235h194q481 0 482 -408q0 -420 -459 -420h-217v-262h-312zM500 502h200q66 0 113 42t47 138q0 59 -15.5 96t-46 51.5t-51 17.5t-57.5 3h-190v-348z" />
<glyph unicode="&#xdf;" horiz-adv-x="1142" d="M131 0v965q0 186 106.5 283.5t284.5 97.5q412 0 412 -336q0 -72 -19.5 -128.5t-54.5 -91t-63.5 -55t-65.5 -39.5l-45 -22q12 -6 63.5 -23.5t82 -30t77.5 -46t75 -73.5t49.5 -107.5t21.5 -151.5q0 -125 -57.5 -220.5t-152.5 -149.5t-205 -81t-226 -27l98 236 q127 0 190.5 79t63.5 167q0 63 -15.5 111.5t-35 76t-57 48t-61.5 27.5t-70 18.5t-60 15.5v219q20 14 42.5 27.5t47.5 36t44.5 47t31.5 62.5t12 81q0 51 -35 82.5t-88 31.5q-41 0 -75.5 -30.5t-34.5 -112.5v-987h-281z" />
<glyph unicode="&#xe0;" horiz-adv-x="1112" d="M84 246q0 352 520 352h72v31q0 33 -3 53t-29 44t-75 24q-182 0 -354 -82l-96 229q201 68 469 68q168 0 269 -76t101 -223v-379q0 -43 18.5 -148.5t22.5 -138.5h-268q-2 0 -20 47l-17 39q-18 -16 -45.5 -35.5t-55.5 -37t-63.5 -30t-68.5 -12.5q-377 1 -377 275zM231 1325 h271l196 -240h-184zM375 258q0 -72 143 -72q68 0 160 103v108h-45q-258 0 -258 -139z" />
<glyph unicode="&#xe1;" horiz-adv-x="1112" d="M84 246q0 352 520 352h72v31q0 33 -3 53t-29 44t-75 24q-182 0 -354 -82l-96 229q201 68 469 68q168 0 269 -76t101 -223v-379q0 -43 18.5 -148.5t22.5 -138.5h-268q-2 0 -20 47l-17 39q-18 -16 -45.5 -35.5t-55.5 -37t-63.5 -30t-68.5 -12.5q-377 1 -377 275zM305 1085 l197 240h270l-280 -240h-187zM375 258q0 -72 143 -72q68 0 160 103v108h-45q-258 0 -258 -139z" />
<glyph unicode="&#xe2;" horiz-adv-x="1112" d="M84 246q0 352 520 352h72v31q0 33 -3 53t-29 44t-75 24q-182 0 -354 -82l-96 229q201 68 469 68q168 0 269 -76t101 -223v-379q0 -43 18.5 -148.5t22.5 -138.5h-268q-2 0 -20 47l-17 39q-18 -16 -45.5 -35.5t-55.5 -37t-63.5 -30t-68.5 -12.5q-377 1 -377 275zM215 1079 l213 246h180l205 -246h-195l-100 123l-106 -123h-197zM375 258q0 -72 143 -72q68 0 160 103v108h-45q-258 0 -258 -139z" />
<glyph unicode="&#xe3;" horiz-adv-x="1112" d="M84 246q0 352 520 352h72v31q0 33 -3 53t-29 44t-75 24q-182 0 -354 -82l-96 229q201 68 469 68q168 0 269 -76t101 -223v-379q0 -43 18.5 -148.5t22.5 -138.5h-268q-2 0 -20 47l-17 39q-18 -16 -45.5 -35.5t-55.5 -37t-63.5 -30t-68.5 -12.5q-377 1 -377 275zM170 1112 q41 92 98.5 128t153.5 36q51 0 113.5 -50t93.5 -50q41 0 70.5 31.5t39.5 64.5l140 -68q-27 -84 -95.5 -132t-150.5 -48q-70 0 -129.5 49t-83.5 49q-82 0 -109 -75zM375 258q0 -72 143 -72q68 0 160 103v108h-45q-258 0 -258 -139z" />
<glyph unicode="&#xe4;" horiz-adv-x="1112" d="M84 246q0 352 520 352h72v31q0 33 -3 53t-29 44t-75 24q-182 0 -354 -82l-96 229q201 68 469 68q168 0 269 -76t101 -223v-379q0 -43 18.5 -148.5t22.5 -138.5h-268q-2 0 -20 47l-17 39q-18 -16 -45.5 -35.5t-55.5 -37t-63.5 -30t-68.5 -12.5q-377 1 -377 275zM252 1067 v223h248v-223h-248zM375 258q0 -72 143 -72q68 0 160 103v108h-45q-258 0 -258 -139zM588 1067v223h248v-223h-248z" />
<glyph unicode="&#xe5;" horiz-adv-x="1112" d="M84 246q0 352 520 352h72v31q0 33 -3 53t-29 44t-75 24q-182 0 -354 -82l-96 229q201 68 469 68q168 0 269 -76t101 -223v-379q0 -43 18.5 -148.5t22.5 -138.5h-268q-2 0 -20 47l-17 39q-18 -16 -45.5 -35.5t-55.5 -37t-63.5 -30t-68.5 -12.5q-377 1 -377 275z M360 1206.5q0 69.5 49.5 118.5t121 49t120.5 -48t49 -120q0 -70 -49 -119t-121 -49q-70 0 -120 49.5t-50 119zM375 258q0 -72 143 -72q68 0 160 103v108h-45q-258 0 -258 -139zM451 1208q0 -29 23.5 -54.5t55.5 -25.5q37 0 57.5 24t20.5 56.5t-21.5 56t-56 23.5t-57 -24.5 t-22.5 -55.5z" />
<glyph unicode="&#xe6;" horiz-adv-x="1685" d="M84 246q0 352 520 352h70v35q0 33 -4 53.5t-29 42t-72 21.5q-182 0 -354 -82l-96 229q190 68 469 68q141 0 270 -80q127 80 270 80q262 0 365.5 -143.5t103.5 -473.5h-641q33 -170 203 -170q129 0 289 80l92 -213q-166 -74 -397 -74q-127 0 -225.5 48.5t-129.5 113.5 q-162 -162 -327 -162q-377 1 -377 275zM375 258q0 -72 143 -72q27 0 51.5 10.5t43 26t35 32.5t28.5 32v110h-43q-258 0 -258 -139zM956 555h363q-18 195 -189 195q-23 0 -45 -5.5t-54 -22.5t-52.5 -60.5t-22.5 -106.5z" />
<glyph unicode="&#xe7;" horiz-adv-x="976" d="M84 461q0 236 124 371t370 135q59 0 166.5 -24.5t166.5 -49.5l-104 -223q-12 4 -68.5 30.5t-94.5 39t-69 12.5q-106 0 -155 -60.5t-49 -230.5q0 -276 202 -277q74 0 242 80l107 -221q-88 -45 -299 -70l-9 -24q70 0 106 -48t36 -104q0 -133 -94.5 -201.5t-206.5 -68.5 q-109 0 -228 16l66 181q147 -18 151 -19q41 0 73 22.5t32 65.5t-33 59.5t-137 16.5l31 121q-160 43 -243 168t-83 303z" />
<glyph unicode="&#xe8;" horiz-adv-x="1107" d="M84 459q0 70 13.5 136.5t46 135t84 119.5t134 83t187.5 32q262 0 366.5 -143.5t104.5 -473.5h-643q33 -170 203 -170q129 0 288 80l93 -213q-166 -74 -398 -74q-225 0 -352 140.5t-127 347.5zM252 1325h270l197 -240h-184zM379 555h360q-18 195 -188 195 q-23 0 -44.5 -5.5t-53 -22.5t-52 -60.5t-22.5 -106.5z" />
<glyph unicode="&#xe9;" horiz-adv-x="1107" d="M84 459q0 70 13.5 136.5t46 135t84 119.5t134 83t187.5 32q262 0 366.5 -143.5t104.5 -473.5h-643q33 -170 203 -170q129 0 288 80l93 -213q-166 -74 -398 -74q-225 0 -352 140.5t-127 347.5zM379 555h360q-18 195 -188 195q-23 0 -44.5 -5.5t-53 -22.5t-52 -60.5 t-22.5 -106.5zM395 1085l197 240h270l-280 -240h-187z" />
<glyph unicode="&#xea;" horiz-adv-x="1107" d="M84 459q0 70 13.5 136.5t46 135t84 119.5t134 83t187.5 32q262 0 366.5 -143.5t104.5 -473.5h-643q33 -170 203 -170q129 0 288 80l93 -213q-166 -74 -398 -74q-225 0 -352 140.5t-127 347.5zM281 1079l213 246h180l205 -246h-195l-100 123l-107 -123h-196zM379 555h360 q-18 195 -188 195q-23 0 -44.5 -5.5t-53 -22.5t-52 -60.5t-22.5 -106.5z" />
<glyph unicode="&#xeb;" horiz-adv-x="1107" d="M84 459q0 70 13.5 136.5t46 135t84 119.5t134 83t187.5 32q262 0 366.5 -143.5t104.5 -473.5h-643q33 -170 203 -170q129 0 288 80l93 -213q-166 -74 -398 -74q-225 0 -352 140.5t-127 347.5zM287 1073v211h245v-211h-245zM379 555h360q-18 195 -188 195 q-23 0 -44.5 -5.5t-53 -22.5t-52 -60.5t-22.5 -106.5zM621 1073v211h245v-211h-245z" />
<glyph unicode="&#xec;" horiz-adv-x="544" d="M43 1325h270l197 -240h-184zM174 0v936h279v-936h-279z" />
<glyph unicode="&#xed;" horiz-adv-x="544" d="M35 1085l196 240h271l-281 -240h-186zM133 0v936h279v-936h-279z" />
<glyph unicode="&#xee;" horiz-adv-x="544" d="M-27 1079l213 246h181l204 -246h-194l-101 123l-106 -123h-197zM133 0v936h279v-936h-279z" />
<glyph unicode="&#xef;" horiz-adv-x="544" d="M-16 1128v211h245v-211h-245zM133 0v936h279v-936h-279zM317 1128v211h246v-211h-246z" />
<glyph unicode="&#xf0;" d="M96 369q0 467 441 467q27 0 64.5 -7.5t92 -38t80.5 -79.5q0 127 -54 215t-149 127l-151 -101l-189 111l95 63h-15q-59 0 -125 -12l-86 248h54q254 0 428 -57l112 81l183 -110l-101 -70q291 -182 291 -626q0 -616 -500 -617q-188 0 -329.5 112t-141.5 294zM403 424 q0 -12 1.5 -31.5t1.5 -23.5q0 -92 46 -133t113 -41q92 0 141.5 55t49.5 227q-25 61 -68 94t-125 33q-160 0 -160 -180z" />
<glyph unicode="&#xf1;" horiz-adv-x="1124" d="M104 936h261l41 -115l27 29q24 25 41.5 40t46 35.5t61 31t67.5 10.5q199 0 271.5 -97.5t72.5 -279.5v-590h-280v608q0 33 -2 51.5t-12.5 44t-35 38t-65.5 12.5q-55 0 -98 -49.5t-88 -137.5v-567h-281v737q0 39 -27 199zM188 1112q41 92 98.5 128t153.5 36q51 0 113.5 -50 t93.5 -50q41 0 71 31.5t40 64.5l139 -68q-27 -84 -95.5 -132t-150.5 -48q-70 0 -129 49t-84 49q-82 0 -108 -75z" />
<glyph unicode="&#xf2;" horiz-adv-x="1140" d="M84 473q0 213 121 353.5t366 140.5q250 0 368 -136.5t118 -357.5q0 -219 -120 -361.5t-366 -142.5q-248 0 -367.5 141.5t-119.5 362.5zM297 1325h270l197 -240h-184zM371 473q0 -291 200 -291q199 0 199 291q0 164 -47 222.5t-152 58.5q-100 0 -150 -59.5t-50 -221.5z " />
<glyph unicode="&#xf3;" horiz-adv-x="1140" d="M84 473q0 213 121 353.5t366 140.5q250 0 368 -136.5t118 -357.5q0 -219 -120 -361.5t-366 -142.5q-248 0 -367.5 141.5t-119.5 362.5zM371 473q0 -291 200 -291q199 0 199 291q0 164 -47 222.5t-152 58.5q-100 0 -150 -59.5t-50 -221.5zM379 1085l196 240h271l-281 -240 h-186z" />
<glyph unicode="&#xf4;" horiz-adv-x="1140" d="M84 473q0 213 121 353.5t366 140.5q250 0 368 -136.5t118 -357.5q0 -219 -120 -361.5t-366 -142.5q-248 0 -367.5 141.5t-119.5 362.5zM272 1079l213 246h181l204 -246h-194l-101 123l-106 -123h-197zM371 473q0 -291 200 -291q199 0 199 291q0 164 -47 222.5t-152 58.5 q-100 0 -150 -59.5t-50 -221.5z" />
<glyph unicode="&#xf5;" horiz-adv-x="1140" d="M84 473q0 213 121 353.5t366 140.5q250 0 368 -136.5t118 -357.5q0 -219 -120 -361.5t-366 -142.5q-248 0 -367.5 141.5t-119.5 362.5zM205 1112q41 92 98 128t154 36q51 0 113.5 -50t93.5 -50q41 0 70.5 31.5t39.5 64.5l139 -68q-27 -84 -95 -132t-150 -48 q-70 0 -129.5 49t-83.5 49q-82 0 -109 -75zM371 473q0 -291 200 -291q199 0 199 291q0 164 -47 222.5t-152 58.5q-100 0 -150 -59.5t-50 -221.5z" />
<glyph unicode="&#xf6;" horiz-adv-x="1140" d="M84 473q0 213 121 353.5t366 140.5q250 0 368 -136.5t118 -357.5q0 -219 -120 -361.5t-366 -142.5q-248 0 -367.5 141.5t-119.5 362.5zM293 1073v211h246v-211h-246zM371 473q0 -291 200 -291q199 0 199 291q0 164 -47 222.5t-152 58.5q-100 0 -150 -59.5t-50 -221.5z M627 1073v211h245v-211h-245z" />
<glyph unicode="&#xf7;" d="M102 362v179h955v-179h-955zM434 8v254h289v-254h-289zM434 631v254h289v-254h-289z" />
<glyph unicode="&#xf8;" horiz-adv-x="1140" d="M35 86l104 119q-55 113 -55 268q0 213 121 353.5t366 140.5q143 0 236 -31l96 102l182 -178l-92 -102q63 -113 64 -285q0 -219 -120 -361.5t-366 -142.5q-143 0 -254 49l-98 -110zM365 446l284 314q-2 0 -32.5 -3t-45.5 -3q-100 0 -150 -59.5t-50 -221.5q0 -11 -6 -27z M481 197q41 -14 90 -15q199 0 199 291q0 29 2 43z" />
<glyph unicode="&#xf9;" horiz-adv-x="1110" d="M131 346v590h281v-608q0 -43 4 -69t29.5 -51.5t74.5 -25.5q31 0 55.5 13.5t49 48.5t35.5 55l38 70v567h281v-737q0 -39 27 -199h-261l-40 115q-2 -2 -35 -37t-53.5 -52.5t-62.5 -37t-85 -19.5q-188 0 -263 98.5t-75 278.5zM258 1325h270l197 -240h-184z" />
<glyph unicode="&#xfa;" horiz-adv-x="1110" d="M131 346v590h281v-608q0 -43 4 -69t29.5 -51.5t74.5 -25.5q31 0 55.5 13.5t49 48.5t35.5 55l38 70v567h281v-737q0 -39 27 -199h-261l-40 115q-2 -2 -35 -37t-53.5 -52.5t-62.5 -37t-85 -19.5q-188 0 -263 98.5t-75 278.5zM356 1085l197 240h270l-280 -240h-187z" />
<glyph unicode="&#xfb;" horiz-adv-x="1110" d="M131 346v590h281v-608q0 -43 4 -69t29.5 -51.5t74.5 -25.5q31 0 55.5 13.5t49 48.5t35.5 55l38 70v567h281v-737q0 -39 27 -199h-261l-40 115q-2 -2 -35 -37t-53.5 -52.5t-62.5 -37t-85 -19.5q-188 0 -263 98.5t-75 278.5zM244 1079l213 246h180l205 -246h-195l-100 123 l-107 -123h-196z" />
<glyph unicode="&#xfc;" horiz-adv-x="1110" d="M131 346v590h281v-608q0 -43 4 -69t29.5 -51.5t74.5 -25.5q31 0 55.5 13.5t49 48.5t35.5 55l38 70v567h281v-737q0 -39 27 -199h-261l-40 115q-2 -2 -35 -37t-53.5 -52.5t-62.5 -37t-85 -19.5q-188 0 -263 98.5t-75 278.5zM264 1073v211h246v-211h-246zM598 1073v211h246 v-211h-246z" />
<glyph unicode="&#xfd;" horiz-adv-x="1130" d="M70 936h299l192 -582l205 582h295l-412 -1086q-111 -295 -391 -389l-96 228q145 39 180 133l82 217zM317 1085l197 240h270l-280 -240h-187z" />
<glyph unicode="&#xfe;" horiz-adv-x="1128" d="M98 -371q10 76 21.5 317.5t11.5 340.5v1059h281v-525q109 143 239 144q199 0 296 -139.5t97 -352.5t-114.5 -357.5t-317.5 -144.5q-78 0 -132 37t-74 78l-48 -457h-260zM408 332q59 -145 155 -146q195 0 195 283q0 164 -45 222.5t-123 58.5q-35 0 -70 -31t-53 -61 l-59 -99v-227z" />
<glyph unicode="&#xff;" d="M70 936h299l192 -582l205 582h295l-412 -1086q-111 -295 -391 -389l-96 228q145 39 180 133l82 217zM305 1067v211h246v-211h-246zM639 1067v211h246v-211h-246z" />
<glyph unicode="&#x152;" horiz-adv-x="2158" d="M117 657q0 152 34.5 274t109.5 219t204 150.5t305 53.5q129 0 231 -29h924v-240h-606q55 -156 70 -280h493v-240h-491q-10 -166 -70 -325h623v-240h-906q-113 -41 -270 -41q-651 0 -651 698zM438 657q0 -264 80 -361t250 -97q168 0 235.5 105.5t67.5 352.5 q0 258 -70.5 357.5t-232.5 99.5q-166 0 -248 -103.5t-82 -353.5z" />
<glyph unicode="&#x153;" horiz-adv-x="1781" d="M84 473q0 213 121 353.5t366 140.5q209 0 342 -97q123 94 310 95q262 0 366.5 -143.5t104.5 -473.5h-643q33 -170 202 -170q129 0 289 80l92 -213q-166 -74 -397 -74q-190 0 -324 103q-135 -104 -342 -105q-248 0 -367.5 141.5t-119.5 362.5zM371 473q0 -291 200 -291 q199 0 199 291q0 164 -47 222.5t-152 58.5q-100 0 -150 -59.5t-50 -221.5zM1053 555h360q-18 195 -188 195q-23 0 -44.5 -5.5t-53 -22.5t-52 -60.5t-22.5 -106.5z" />
<glyph unicode="&#x178;" horiz-adv-x="1327" d="M27 1325h354l289 -463l291 463h339l-487 -729v-596h-311v588zM397 1454v215h242v-215h-242zM725 1454v215h244v-215h-244z" />
<glyph unicode="&#x2c6;" horiz-adv-x="544" d="M-27 1079l213 246h181l204 -246h-194l-101 123l-106 -123h-197z" />
<glyph unicode="&#x2dc;" horiz-adv-x="544" d="M-82 1112q41 92 98.5 128t153.5 36q51 0 113.5 -50t93.5 -50q41 0 70.5 31.5t39.5 64.5l140 -68q-27 -84 -95.5 -132t-150.5 -48q-70 0 -129 49t-84 49q-82 0 -109 -75z" />
<glyph unicode="&#x2000;" horiz-adv-x="854" />
<glyph unicode="&#x2001;" horiz-adv-x="1710" />
<glyph unicode="&#x2002;" horiz-adv-x="854" />
<glyph unicode="&#x2003;" horiz-adv-x="1710" />
<glyph unicode="&#x2004;" horiz-adv-x="569" />
<glyph unicode="&#x2005;" horiz-adv-x="425" />
<glyph unicode="&#x2006;" horiz-adv-x="284" />
<glyph unicode="&#x2007;" horiz-adv-x="284" />
<glyph unicode="&#x2008;" horiz-adv-x="212" />
<glyph unicode="&#x2009;" horiz-adv-x="342" />
<glyph unicode="&#x200a;" horiz-adv-x="94" />
<glyph unicode="&#x2010;" horiz-adv-x="741" d="M53 328v229h635v-229h-635z" />
<glyph unicode="&#x2011;" horiz-adv-x="741" d="M53 328v229h635v-229h-635z" />
<glyph unicode="&#x2012;" horiz-adv-x="741" d="M53 328v229h635v-229h-635z" />
<glyph unicode="&#x2013;" horiz-adv-x="1024" d="M-2 383v205h1028v-205h-1028z" />
<glyph unicode="&#x2014;" horiz-adv-x="2048" d="M-2 362v226h2052v-226h-2052z" />
<glyph unicode="&#x2018;" horiz-adv-x="579" d="M92 942l203 385h182l-174 -385h-211z" />
<glyph unicode="&#x2019;" horiz-adv-x="579" d="M88 942l176 385h211l-203 -385h-184z" />
<glyph unicode="&#x201a;" horiz-adv-x="579" d="M88 -180l176 385h211l-203 -385h-184z" />
<glyph unicode="&#x201c;" horiz-adv-x="886" d="M82 942l203 385h182l-174 -385h-211zM420 942l201 385h184l-174 -385h-211z" />
<glyph unicode="&#x201d;" horiz-adv-x="886" d="M82 942l174 385h211l-201 -385h-184zM422 942l174 385h209l-203 -385h-180z" />
<glyph unicode="&#x201e;" horiz-adv-x="886" d="M82 -180l174 385h211l-201 -385h-184zM422 -180l174 385h209l-203 -385h-180z" />
<glyph unicode="&#x2022;" d="M270 663.5q0 131.5 90.5 220.5t219.5 89t219 -90t90 -219t-90 -220.5t-219 -91.5q-131 0 -220.5 90t-89.5 221.5z" />
<glyph unicode="&#x2026;" horiz-adv-x="1740" d="M145 0v254h289v-254h-289zM725 0v254h289v-254h-289zM1305 0v254h290v-254h-290z" />
<glyph unicode="&#x202f;" horiz-adv-x="342" />
<glyph unicode="&#x2039;" horiz-adv-x="579" d="M86 553l190 373h254l-198 -369l196 -369h-252z" />
<glyph unicode="&#x203a;" horiz-adv-x="579" d="M80 926h254l190 -373l-190 -365h-252l197 369z" />
<glyph unicode="&#x205f;" horiz-adv-x="425" />
<glyph unicode="&#x20ac;" horiz-adv-x="1105" d="M-63 401l77 240h133v59h-210l77 240h162q106 414 602 414q199 0 363 -54l-82 -249q-156 63 -281 63q-223 0 -280 -174h520l-78 -240h-471v-59h451l-78 -240h-350q27 -109 91 -155.5t183 -46.5q53 0 112.5 16t109.5 38l108 44v-289q-129 -49 -324 -49q-510 0 -602 442 h-233z" />
<glyph unicode="&#x2122;" horiz-adv-x="1918" d="M125 1196v129h608v-129h-213v-600h-182v600h-213zM823 596v729h310l174 -506l176 506h299v-729h-183v549l-198 -549h-203l-199 549v-549h-176z" />
<glyph unicode="&#xe000;" horiz-adv-x="935" d="M0 935h935v-935h-935v935z" />
<glyph unicode="&#xfb01;" horiz-adv-x="1200" d="M18 721v215h142v22q0 182 112.5 271.5t337.5 132.5l99 -227q-139 -16 -204 -57.5t-65 -129.5v-12h172v-215h-172v-721h-280v721h-142zM780 1104v221h293v-221h-293zM786 0v936h281v-936h-281z" />
<glyph unicode="&#xfb02;" horiz-adv-x="1200" d="M18 721v215h142v22q0 182 112.5 271.5t337.5 132.5l99 -227q-139 -16 -204 -57.5t-65 -129.5v-12h172v-215h-172v-721h-280v721h-142zM795 0v1346h280v-1346h-280z" />
<glyph unicode="&#xfb03;" horiz-adv-x="1912" d="M1495 1104v221h291v-221h-291zM1501 0v936h279v-936h-279zM702 721v215h142v22q0 182 112.5 271.5t337.5 132.5l99 -227q-139 -16 -204 -57.5t-65 -129.5v-12h172v-215h-172v-721h-280v721h-142zM18 721v215h142v22q0 182 112.5 271.5t337.5 132.5l99 -227 q-139 -16 -204 -57.5t-65 -129.5v-12h172v-215h-172v-721h-280v721h-142z" />
<glyph unicode="&#xfb04;" horiz-adv-x="1910" d="M1499 0v1346h281v-1346h-281zM702 721v215h142v22q0 182 112.5 271.5t337.5 132.5l99 -227q-139 -16 -204 -57.5t-65 -129.5v-12h172v-215h-172v-721h-280v721h-142zM18 721v215h142v22q0 182 112.5 271.5t337.5 132.5l99 -227q-139 -16 -204 -57.5t-65 -129.5v-12h172 v-215h-172v-721h-280v721h-142z" />
<glyph horiz-adv-x="512" />
</font>
</defs>
</svg>
